<svg xmlns="http://www.w3.org/2000/svg" width="664" height="81" viewBox="0 0 664 81">
    <g fill="none" fill-rule="evenodd" stroke="#979797" stroke-linecap="square" stroke-width="2" opacity=".3">
        <path d="M661.969 69.465l-15.463 9.063M662.668 58.304l-34.84 20.421M662.34 47.746L610.485 78.14M662.602 36.841L591.872 78.3M661.684 26.628l-89.39 52.394M662.23 15.558L554.951 78.436M662.492 4.653L537.454 77.941M648.909 1.864L517.597 78.829M631.412 1.368l-131.16 76.876M612.888 1.475l-130.723 76.62M594.428 1.544L463.18 78.473M575.54 1.864l-129.768 76.06M557.198 1.864L426.261 78.61M538.856 1.864l-130.9 76.724M520.514 1.864L390.24 78.222M502.29 1.794L371.037 78.727M483.83 1.864L353.166 78.448M466.333 1.368l-131.78 77.24M447.145 1.864L316.62 78.368M428.803 1.864L298.16 78.439M410.462 1.864L278.892 78.98M392.119 1.864l-131.097 76.84M373.777 1.864L243.743 78.08M355.435 1.864l-130.96 76.76M337.937 1.368l-131.55 77.105M318.75 1.864L187.993 78.505M300.409 1.864l-129.76 76.055M282.73 1.475L151.38 78.463M264.57 1.368L132.394 78.84M246.227 1.368L115.27 78.126M227.586 1.544L96.374 78.45M208.698 1.864L78.286 78.302M191.201 1.368L59.519 78.551M172.859 1.368L41.059 78.62M154.516 1.368L23.344 78.252M135.875 1.544L4.293 78.668M117.832 1.368L1.652 69.465M99.49 1.368L2.351 58.304M80.303 1.864L2.024 47.745M62.806 1.368L2.286 36.841M44.464 1.368L1.368 26.628M26.122 1.368L1.914 15.558M6.935 1.864l-4.76 2.79"/>
    </g>
</svg>
